<svg width="631" height="632" viewBox="0 0 631 632" fill="none" xmlns="http://www.w3.org/2000/svg">
<g clip-path="url(#clip0_130_2)">
<path d="M376.057 123.212L377.851 130.933C381.481 146.554 394.618 158.083 410.752 159.809L412.139 159.958C418.877 160.679 425.718 159.392 431.791 156.263C438.091 153.017 443.262 147.943 446.597 141.736L452.54 130.672C456.771 122.798 456.959 113.464 453.046 105.586C449.471 98.3893 442.851 93.1728 434.941 91.3199L421.443 88.1582C417.733 87.2891 413.906 86.9478 410.078 87.1446L403.471 87.4843C393.054 88.0198 383.614 94.0259 378.724 103.229C375.444 109.403 374.497 116.497 376.057 123.212Z" fill="#F27215" stroke="#0C0C0C" stroke-width="12"/>
<path d="M134.052 450.604L17.4249 510.229C11.739 513.136 7.53781 518.3 5.84875 524.458L4.86446 528.047C2.15633 537.921 7.79933 548.157 17.5945 551.138C21.4318 552.306 25.5412 552.223 29.3285 550.902L58.4603 540.739C62.4704 539.34 66.2859 537.435 69.8147 535.072L106.5 510.501L151 479.509L189.5 447.563L218 416.572L230.699 402.26C233.219 399.421 236.15 396.975 239.396 395.005C250.1 388.51 263.32 387.713 274.727 392.875L286 397.977L339.5 416.572L385.993 433.94C387.323 434.437 388.57 435.134 389.689 436.008C397.062 441.76 396.789 452.998 389.145 458.386L384.226 461.853C382.423 463.124 380.407 464.06 378.273 464.617L345.712 473.119C341.587 474.196 337.343 474.741 333.08 474.741H317.648C308.937 474.741 300.611 478.331 294.632 484.667L289.16 490.464C287.131 492.615 286 495.46 286 498.417C286 505.007 291.489 510.27 298.073 509.993L316.362 509.223C318.778 509.122 321.172 508.72 323.488 508.027L371 493.813L411.453 477.397C415.784 475.64 419.775 473.139 423.246 470.009L427.897 465.814C433.374 460.873 436.5 453.843 436.5 446.467C436.5 438.98 433.28 431.855 427.66 426.909L413.697 414.618C411.57 412.745 409.287 411.057 406.873 409.571L371 387.487L329.5 367.938L306.73 354.056C301.929 351.129 299 345.913 299 340.29C299 334.922 301.672 329.906 306.128 326.91L329.5 311.2L371 277.347L410.957 251.81C415.62 248.83 420.745 246.645 426.124 245.343L439.165 242.188C447.26 240.229 455.716 240.324 463.765 242.463L474.867 245.413C479.597 246.67 484.116 248.615 488.281 251.184L495.429 255.595C503.321 260.464 512.411 263.043 521.684 263.043H540.275C549.259 263.043 558.077 260.623 565.802 256.036L580.5 247.309L611 229.667L615.595 226.71C622.157 222.486 621.335 212.647 614.164 209.569C612.117 208.691 609.83 208.541 607.685 209.144L584.793 215.586C581.937 216.39 579.158 217.446 576.488 218.743L564.346 224.641C557.538 227.949 550.067 229.667 542.498 229.667H527.748C517.498 229.667 507.495 226.517 499.094 220.642L477.829 205.772C475.613 204.222 473.527 202.496 471.59 200.609L451.5 181.034L442.227 172.756C433.064 164.576 421.211 160.055 408.929 160.055H370.443C365.836 160.055 361.252 160.692 356.82 161.947L338.5 167.134L314.5 172.134L280.501 184.204C277.507 185.267 274.622 186.613 271.883 188.223L251.703 200.09C247.918 202.316 244.442 205.031 241.365 208.165L201.759 248.516C192.689 257.757 184.06 273.98 194.5 281.638C195.126 282.097 195.855 282.432 196.649 282.669C204.85 285.113 212.538 278.327 218.324 272.022L260.621 225.925C266.124 219.928 273.007 215.366 280.673 212.633L293.607 208.022C296.174 207.107 298.904 206.733 301.623 206.923L308.494 207.405C314.975 207.859 320 213.249 320 219.746C320 222.47 319.101 225.117 317.443 227.278L290 263.043L243 331.702L197.475 393.912C195.497 396.615 193.252 399.112 190.774 401.367L144.941 443.068C141.662 446.052 138 448.586 134.052 450.604Z" fill="#F27215" stroke="#0C0C0C" stroke-width="12"/>
</g>
<defs>
<clipPath id="clip0_130_2">
<rect width="631" height="632" fill="white"/>
</clipPath>
</defs>
</svg>
