<svg width="256" height="256" viewBox="0 0 256 256" fill="none" xmlns="http://www.w3.org/2000/svg">
<g clip-path="url(#clip0_78_2)">
<path d="M106.672 138.664C111.253 144.788 117.098 149.856 123.809 153.522C130.52 157.189 137.942 159.37 145.57 159.916C153.198 160.462 160.855 159.362 168.02 156.689C175.185 154.016 181.692 149.833 187.099 144.424L219.099 112.424C228.814 102.366 234.19 88.8935 234.068 74.9097C233.947 60.9259 228.338 47.5492 218.449 37.6608C208.561 27.7723 195.184 22.1633 181.2 22.0418C167.217 21.9203 153.744 27.296 143.686 37.0111L125.339 55.2511" stroke="#F27215" stroke-width="23.7151" stroke-linecap="round" stroke-linejoin="round"/>
<path d="M149.336 117.332C144.756 111.208 138.911 106.141 132.2 102.474C125.488 98.8071 118.067 96.6267 110.439 96.0804C102.811 95.534 95.1542 96.6347 87.9887 99.3076C80.8233 101.98 74.3165 106.163 68.9098 111.572L36.9098 143.572C27.1947 153.631 21.819 167.103 21.9405 181.087C22.062 195.07 27.671 208.447 37.5594 218.336C47.4479 228.224 60.8245 233.833 74.8084 233.955C88.7922 234.076 102.264 228.7 112.323 218.985L130.563 200.745" stroke="#F27215" stroke-width="23.7151" stroke-linecap="round" stroke-linejoin="round"/>
</g>
<defs>
<clipPath id="clip0_78_2">
<rect width="256" height="256" fill="white"/>
</clipPath>
</defs>
</svg>
