<svg width="1024" height="1024" viewBox="0 0 1024 1024" fill="none" xmlns="http://www.w3.org/2000/svg">
<rect x="21.3953" y="156.665" width="752.939" height="752.939" rx="376.47" fill="url(#paint0_linear_207_16)" stroke="white" stroke-width="13.2095"/>
<path d="M225.481 702.876L201.537 710.748C187.055 715.51 177.267 729.032 177.267 744.276V752.146C177.267 758.922 180.624 765.258 186.231 769.062C192.147 773.077 199.729 773.709 206.228 770.73L237.351 756.466C241.32 754.647 245.135 752.511 248.761 750.079L295.491 718.728L356.915 673.155L406.451 632.866L437.979 604.161C446.444 596.455 454.191 587.995 461.124 578.886L478.649 555.863C482.435 550.889 487.183 546.728 492.611 543.626C507.481 535.129 525.814 535.472 540.355 544.52L543.183 546.28C545.372 547.642 547.659 548.84 550.024 549.864L590.723 567.479L642.9 584.652L681.808 603.208C684.465 604.475 686.853 606.242 688.842 608.411C695.68 615.871 696.821 626.932 691.649 635.63L690.913 636.868C687.65 642.355 682.403 646.377 676.257 648.103L648.184 655.983L601.29 662.588H572.192C560.175 662.588 550.434 672.329 550.434 684.346C550.434 698.049 562.947 708.34 576.392 705.695L590.723 702.876L627.808 695.699C643.976 692.569 659.714 687.525 674.689 680.672L680.013 678.235C687.4 674.855 694.479 670.839 701.17 666.232L723.216 651.053C728.584 647.357 732.909 642.341 735.776 636.488C742.69 622.371 740.187 605.454 729.481 593.945L720.836 584.652C697.544 564.875 672.566 547.176 646.188 531.754L642.9 529.832L601.29 508.037L583.579 499.317C569.785 492.527 564.353 475.665 571.588 462.099C573.319 458.854 575.689 455.993 578.557 453.69L614.5 424.817L660.072 387.831L686.387 365.83C695.648 358.088 706.049 351.823 717.224 347.259L722.174 345.237C738.586 338.534 756.51 336.417 774.032 339.113C784.727 340.758 795.075 344.167 804.654 349.2L810.607 352.327C822.901 358.787 836.099 363.355 849.756 365.876L855.932 367.016C866.678 369 877.582 369.998 888.509 369.998H902.029C911.514 369.998 920.945 368.58 930.01 365.791C938.031 363.323 945.69 359.804 952.788 355.327L979.969 338.182C983.247 336.115 985.744 333.017 987.068 329.375C991.212 317.98 982.773 305.932 970.648 305.932H960.695C955.477 305.932 950.396 307.602 946.195 310.697L936.806 317.616C930.7 322.115 923.796 325.414 916.46 327.338L909.968 329.041C895.063 332.95 879.431 333.174 864.421 329.693L856.778 327.921C846.765 325.599 837.071 322.068 827.911 317.404L820.757 313.762C810.526 308.554 800.806 302.397 791.725 295.372L785.386 290.468C775.43 282.766 766.654 273.649 759.338 263.406L755.425 257.928C750.013 250.351 743.423 243.69 735.906 238.196C720.964 227.277 702.936 221.392 684.429 221.392H679.646C672.342 221.392 665.06 222.177 657.924 223.734L632.332 229.317L601.29 238.564L558.36 254.415C536.902 264.487 517.054 277.679 499.459 293.563L481.744 309.556C479.546 311.54 477.51 313.696 475.654 316.003L440.221 360.04C436.102 365.16 437.763 372.775 443.64 375.714C447.807 377.797 452.853 376.825 455.948 373.343L498.005 326.029C501.688 321.886 505.734 318.081 510.095 314.659L532.551 297.04C541.733 289.835 552.296 284.592 563.587 281.635L571.222 279.635C573.206 279.116 575.249 278.853 577.3 278.853H585.439C594.193 278.853 601.29 285.95 601.29 294.704V296.631C601.29 306.877 597.53 316.767 590.723 324.425C569.18 349.486 549.611 376.178 532.192 404.261L525.996 414.25L495.615 457.18C477.603 491.006 456.381 523.022 432.24 552.784L420.321 567.479C396.141 592.538 370.021 615.65 342.205 636.598L330.496 645.415L276.338 678.439L225.481 702.876Z" fill="#1F7BD1" stroke="white" stroke-width="6.60473"/>
<path d="M798.764 200.437C792.945 208.113 786.24 214.588 778.33 219.783C766.179 227.764 749.788 231.872 735.067 230.611C720.354 229.352 707.961 222.843 702.559 210.298C694.666 191.97 699.155 169.812 711.577 153.592C723.314 138.267 739.731 130.35 756.85 126.774C773.434 123.311 790.597 124.355 803.075 134.326C811.964 141.429 814.837 152.62 813.406 165.038C811.975 177.463 806.255 190.555 798.764 200.437Z" fill="#1F7BD1" stroke="white" stroke-width="6.60473"/>
<defs>
<linearGradient id="paint0_linear_207_16" x1="702.343" y1="336.314" x2="138.299" y2="774.207" gradientUnits="userSpaceOnUse">
<stop stop-color="#F0DB1D"/>
<stop offset="1" stop-color="#D31414"/>
</linearGradient>
</defs>
</svg>
