<svg width="297" height="113" viewBox="0 0 297 113" fill="none" xmlns="http://www.w3.org/2000/svg">
<g clip-path="url(#clip0_121_11)">
<path d="M55.8625 60L69.5875 12.075H87.2125L100.863 60H89.0125L78.85 19.8H77.9875L67.7125 60H55.8625ZM67.525 48.7125V39.6H89.125V48.7125H67.525ZM105.554 60L107.054 12.075H123.404L131.316 40.65H131.804L139.716 12.075H156.066L157.566 60H146.204L145.866 44.2875L145.529 25.1625H144.966L136.754 54.375H126.329L118.116 25.1625H117.516L117.216 44.325L116.916 60H105.554ZM177.546 60H165.771V12.075H177.546V60ZM205.066 61.05C198.241 61.05 193.154 59.25 189.804 55.65C186.479 52.025 184.816 46.8625 184.816 40.1625V31.65C184.816 25.075 186.491 20 189.841 16.425C193.191 12.825 198.241 11.025 204.991 11.025C206.791 11.025 208.454 11.1625 209.979 11.4375C211.504 11.7125 212.891 12.0875 214.141 12.5625C215.391 13.0125 216.491 13.525 217.441 14.1L218.304 24.15C216.829 23.375 215.204 22.7 213.429 22.125C211.679 21.525 209.641 21.225 207.316 21.225C203.741 21.225 201.091 22.1875 199.366 24.1125C197.666 26.0125 196.816 28.6875 196.816 32.1375V39.7125C196.816 43.1375 197.679 45.8125 199.404 47.7375C201.154 49.6625 203.941 50.625 207.766 50.625C210.016 50.625 212.029 50.325 213.804 49.725C215.579 49.125 217.204 48.4 218.679 47.55L217.816 57.825C216.866 58.4 215.754 58.9375 214.479 59.4375C213.204 59.9125 211.779 60.3 210.204 60.6C208.654 60.9 206.941 61.05 205.066 61.05ZM237.165 60H225.39V12.075H237.165V60Z" fill="#111111"/>
<path d="M104.422 98.5507C101.177 98.5507 98.773 97.7691 97.2099 96.2059C95.6586 94.6309 94.8829 92.3276 94.8829 89.2961V75.2987H100.461V89.4026C100.461 90.8711 100.774 91.9842 101.402 92.7421C102.041 93.4882 103.048 93.8612 104.422 93.8612C105.807 93.8612 106.814 93.4882 107.441 92.7421C108.069 91.9842 108.383 90.8711 108.383 89.4026V75.2987H113.961V89.2961C113.961 92.3276 113.185 94.6309 111.634 96.2059C110.094 97.7691 107.69 98.5507 104.422 98.5507ZM125.545 75.2809L131.691 91.9428H131.94L131.691 82.3507V75.2809H136.984V98H129.542L123.165 80.9651H122.934L123.182 90.7704V98H117.889V75.2809H125.545ZM146.677 98H141.099V75.2987H146.677V98ZM155.378 98L149.161 75.2987H154.917L159.375 93.8612H159.784L164.26 75.2987H169.997L163.798 98H155.378ZM172.462 98V75.2987H177.898V98H172.462ZM174.079 98V93.3638H188.36V98H174.079ZM175.642 88.7099V84.2513H187.934V88.7099H175.642ZM174.061 79.8816V75.2987H188.2V79.8816H174.061ZM204.61 98L204.166 93.7191C204.095 92.9612 203.947 92.3454 203.722 91.8717C203.497 91.3862 203.153 91.0309 202.691 90.8059C202.23 90.5691 201.614 90.4507 200.844 90.4507L195.71 90.4329V86.1875L201.057 86.1697C202.218 86.1697 203.053 85.9151 203.562 85.4059C204.071 84.8967 204.326 84.1329 204.326 83.1145V82.7592C204.326 81.7526 204.071 81.0007 203.562 80.5033C203.064 79.9941 202.224 79.7395 201.039 79.7395H195.675V75.2987H201.839C204.622 75.2987 206.653 75.8375 207.932 76.9151C209.222 77.9928 209.868 79.5441 209.868 81.5691V82.0309C209.868 83.5586 209.477 84.7487 208.695 85.6013C207.914 86.4539 206.724 86.9395 205.125 87.0579V87.8395L203.988 87.0757C205.362 87.1704 206.428 87.4546 207.185 87.9283C207.943 88.402 208.5 89.0651 208.855 89.9178C209.222 90.7586 209.489 91.8066 209.655 93.0618L210.312 98H204.61ZM191.856 98V75.2987H197.256V87.7151L197.291 89.7757V98H191.856ZM220.522 98.4796C219.468 98.4796 218.479 98.4086 217.556 98.2664C216.644 98.1362 215.809 97.9645 215.051 97.7513C214.305 97.5263 213.648 97.2954 213.079 97.0586L212.6 91.9428C213.535 92.3809 214.642 92.7895 215.921 93.1684C217.2 93.5355 218.556 93.7191 219.989 93.7191C221.375 93.7191 222.358 93.5474 222.938 93.2039C223.53 92.8487 223.826 92.298 223.826 91.552V91.4276C223.826 90.9303 223.69 90.5276 223.417 90.2197C223.157 89.9 222.713 89.6099 222.085 89.3493C221.469 89.077 220.634 88.7868 219.581 88.4789C217.994 88.0053 216.667 87.4783 215.602 86.898C214.548 86.3178 213.76 85.5954 213.239 84.7309C212.718 83.8546 212.458 82.7474 212.458 81.4092V81.1783C212.458 79.1178 213.156 77.5428 214.554 76.4533C215.963 75.3638 218.029 74.8191 220.753 74.8191C222.387 74.8191 223.796 74.9612 224.981 75.2454C226.177 75.5296 227.189 75.8671 228.018 76.2579L228.498 81.0184C227.586 80.5803 226.55 80.2132 225.389 79.9171C224.24 79.6092 223.009 79.4553 221.694 79.4553C220.771 79.4553 220.042 79.5322 219.509 79.6862C218.988 79.8401 218.621 80.0651 218.408 80.3612C218.195 80.6454 218.088 80.9947 218.088 81.4092V81.4803C218.088 81.9066 218.207 82.2796 218.444 82.5993C218.692 82.9191 219.131 83.227 219.758 83.523C220.398 83.8191 221.304 84.1388 222.476 84.4822C224.051 84.9441 225.354 85.4414 226.384 85.9743C227.426 86.4954 228.202 87.1763 228.711 88.0171C229.232 88.8461 229.492 89.9533 229.492 91.3388V91.623C229.492 93.9086 228.752 95.6257 227.272 96.7743C225.792 97.9112 223.542 98.4796 220.522 98.4796ZM238.233 98H232.656V75.2987H238.233V98ZM247.503 98V76.3645H253.063V98H247.503ZM241.233 79.9349V75.2987H259.316V79.9349H241.233ZM257.926 98L264.427 75.2987H272.776L279.242 98H273.629L268.815 78.9579H268.406L263.539 98H257.926ZM263.45 92.6533V88.3368H273.682V92.6533H263.45ZM269.845 68.6375H275.671V68.6908L270.715 73.4868H265.919V73.4336L269.845 68.6375Z" fill="#111111"/>
<path d="M14.9507 98V93.3461H19.9066C21.3276 93.3461 22.3934 92.9612 23.1039 92.1914C23.8145 91.4217 24.1697 90.3204 24.1697 88.8875V84.3401C24.1697 82.9072 23.8145 81.8118 23.1039 81.0539C22.3934 80.2842 21.3276 79.8993 19.9066 79.8993H14.9329V75.2987H20.102C23.3349 75.2987 25.7507 76.0803 27.3493 77.6434C28.9599 79.1947 29.7651 81.427 29.7651 84.3401V88.9053C29.7651 91.8303 28.9658 94.0803 27.3671 95.6553C25.7684 97.2184 23.3467 98 20.102 98H14.9507ZM11.0605 98V75.2987H16.5316V98H11.0605ZM33.1604 98V75.2987H38.5959V98H33.1604ZM34.7768 98V93.3638H49.0584V98H34.7768ZM36.34 88.7099V84.2513H48.6321V88.7099H36.34ZM34.7591 79.8816V75.2987H48.8985V79.8816H34.7591ZM58.114 98H52.5541V75.2987H58.114V98ZM55.716 93.3283H67.5818V98H55.716V93.3283ZM75.8078 98H70.2479V75.2987H75.8078V98ZM73.4098 93.3283H85.2756V98H73.4098V93.3283ZM91.3847 74.5349C91.4202 74.7836 91.4557 75.0737 91.4913 75.4053C91.5268 75.7368 91.5446 76.098 91.5446 76.4888C91.5446 77.9217 91.3255 79.2599 90.8873 80.5033C90.461 81.7467 89.7742 82.9132 88.8268 84.0026L85.0965 83.15C85.5465 82.2263 85.8899 81.2434 86.1268 80.2013C86.3755 79.1592 86.4998 78.0164 86.4998 76.773C86.4998 76.3822 86.488 76.0151 86.4643 75.6717C86.4406 75.3283 86.411 74.9493 86.3755 74.5349H91.3847Z" fill="#F27215"/>
</g>
<defs>
<clipPath id="clip0_121_11">
<rect width="297" height="113" fill="white"/>
</clipPath>
</defs>
</svg>
