<svg width="843" height="652" viewBox="0 0 843 652" fill="none" xmlns="http://www.w3.org/2000/svg">
<rect x="69" y="17" width="705" height="617" rx="308.5" stroke="#0C0C0C" stroke-width="20" stroke-miterlimit="1.64343" stroke-linecap="round" stroke-dasharray="50 50"/>
<path d="M258.552 422.47L141.925 482.095C136.239 485.001 132.038 490.166 130.349 496.324L129.364 499.913C126.656 509.787 132.299 520.023 142.094 523.004C145.932 524.172 150.041 524.089 153.828 522.768L182.96 512.604C186.97 511.205 190.786 509.301 194.315 506.938L231 482.366L275.5 451.375L314 419.429L342.5 388.437L355.199 374.126C357.719 371.286 360.65 368.841 363.896 366.871C374.6 360.376 387.82 359.578 399.227 364.741L410.5 369.842L464 388.437L510.493 405.806C511.823 406.303 513.07 407 514.189 407.873C521.562 413.626 521.289 424.864 513.645 430.252L508.726 433.719C506.923 434.99 504.907 435.926 502.773 436.483L470.212 444.985C466.087 446.061 461.843 446.607 457.58 446.607H442.148C433.437 446.607 425.111 450.197 419.132 456.532L413.66 462.33C411.631 464.481 410.5 467.326 410.5 470.283C410.5 476.872 415.989 482.135 422.573 481.858L440.862 481.089C443.278 480.987 445.672 480.585 447.988 479.892L495.5 465.678L535.953 449.263C540.284 447.506 544.275 445.005 547.746 441.874L552.397 437.679C557.874 432.739 561 425.708 561 418.332C561 410.846 557.78 403.721 552.16 398.774L538.197 386.484C536.07 384.611 533.787 382.922 531.373 381.436L495.5 359.353L454 339.804L431.23 325.922C426.429 322.995 423.5 317.779 423.5 312.156C423.5 306.788 426.172 301.771 430.628 298.776L454 283.065L495.5 249.213L535.457 223.676C540.12 220.696 545.245 218.51 550.624 217.209L563.665 214.054C571.76 212.095 580.216 212.19 588.265 214.329L599.367 217.279C604.097 218.536 608.616 220.48 612.781 223.05L619.929 227.461C627.821 232.33 636.911 234.909 646.184 234.909H664.775C673.759 234.909 682.577 232.488 690.302 227.902L705 219.175L735.5 201.533L740.095 198.575C746.657 194.352 745.835 184.512 738.664 181.435C736.617 180.557 734.33 180.407 732.185 181.01L709.293 187.452C706.437 188.255 703.658 189.312 700.988 190.608L688.846 196.507C682.038 199.815 674.567 201.533 666.998 201.533H652.248C641.998 201.533 631.995 198.383 623.594 192.508L602.329 177.637C600.113 176.088 598.027 174.361 596.09 172.474L576 152.9L566.727 144.622C557.564 136.442 545.711 131.921 533.429 131.921H494.943C490.336 131.921 485.752 132.557 481.32 133.812L463 139L439 144L405.001 156.07C402.007 157.133 399.122 158.479 396.383 160.089L376.203 171.956C372.418 174.182 368.942 176.897 365.865 180.031L326.259 220.382C317.189 229.622 308.56 245.846 319 253.504C319.626 253.963 320.355 254.298 321.149 254.535C329.35 256.979 337.038 250.193 342.824 243.888L385.121 197.791C390.624 191.794 397.507 187.231 405.173 184.498L418.107 179.888C420.674 178.973 423.404 178.598 426.123 178.789L432.994 179.271C439.475 179.725 444.5 185.115 444.5 191.612C444.5 194.335 443.601 196.983 441.943 199.143L414.5 234.909L367.5 303.568L321.975 365.777C319.997 368.48 317.752 370.978 315.274 373.232L269.441 414.934C266.162 417.917 262.5 420.452 258.552 422.47Z" fill="#F27215" stroke="#0C0C0C" stroke-width="10"/>
<path d="M500.557 95.0775L502.351 102.798C505.981 118.419 519.118 129.948 535.252 131.675L536.639 131.823C543.377 132.544 550.218 131.258 556.291 128.129C562.591 124.883 567.762 119.809 571.097 113.601L577.04 102.538C581.271 94.663 581.459 85.3294 577.546 77.4514C573.971 70.2545 567.351 65.038 559.441 63.1852L545.943 60.0234C542.233 59.1543 538.406 58.813 534.578 59.0099L527.971 59.3495C517.554 59.8851 508.114 65.8912 503.224 75.0942C499.944 81.2684 498.997 88.3624 500.557 95.0775Z" fill="#F27215" stroke="#0C0C0C" stroke-width="10"/>
</svg>
