<svg width="281" height="99" viewBox="0 0 281 99" fill="none" xmlns="http://www.w3.org/2000/svg">
<g clip-path="url(#clip0_120_10)">
<path d="M0.8625 53L14.5875 5.075H32.2125L45.8625 53H34.0125L23.85 12.8H22.9875L12.7125 53H0.8625ZM12.525 41.7125V32.6H34.125V41.7125H12.525ZM50.5535 53L52.0535 5.075H68.4035L76.316 33.65H76.8035L84.716 5.075H101.066L102.566 53H91.2035L90.866 37.2875L90.5285 18.1625H89.966L81.7535 47.375H71.3285L63.116 18.1625H62.516L62.216 37.325L61.916 53H50.5535ZM122.546 53H110.771V5.075H122.546V53ZM150.066 54.05C143.241 54.05 138.154 52.25 134.804 48.65C131.479 45.025 129.816 39.8625 129.816 33.1625V24.65C129.816 18.075 131.491 13 134.841 9.425C138.191 5.825 143.241 4.025 149.991 4.025C151.791 4.025 153.454 4.1625 154.979 4.4375C156.504 4.7125 157.891 5.0875 159.141 5.5625C160.391 6.0125 161.491 6.525 162.441 7.1L163.304 17.15C161.829 16.375 160.204 15.7 158.429 15.125C156.679 14.525 154.641 14.225 152.316 14.225C148.741 14.225 146.091 15.1875 144.366 17.1125C142.666 19.0125 141.816 21.6875 141.816 25.1375V32.7125C141.816 36.1375 142.679 38.8125 144.404 40.7375C146.154 42.6625 148.941 43.625 152.766 43.625C155.016 43.625 157.029 43.325 158.804 42.725C160.579 42.125 162.204 41.4 163.679 40.55L162.816 50.825C161.866 51.4 160.754 51.9375 159.479 52.4375C158.204 52.9125 156.779 53.3 155.204 53.6C153.654 53.9 151.941 54.05 150.066 54.05ZM182.165 53H170.39V5.075H182.165V53Z" fill="#111111"/>
</g>
<defs>
<clipPath id="clip0_120_10">
<rect width="281" height="99" fill="white"/>
</clipPath>
</defs>
</svg>
