<svg width="256" height="70" viewBox="0 0 256 70" fill="none" xmlns="http://www.w3.org/2000/svg">
<g clip-path="url(#clip0_61_2)">
<rect width="256" height="70" fill="white"/>
<path d="M0.685513 41L11.5941 2.90933H25.6024L36.4514 41H27.0331L18.9559 9.04914H18.2704L10.1039 41H0.685513ZM9.95484 32.0287V24.7861H27.1225V32.0287H9.95484ZM40.1798 41L41.372 2.90933H54.3669L60.6558 25.6207H61.0432L67.3321 2.90933H80.327L81.5192 41H72.4883L72.2201 28.5117L71.9518 13.3112H71.5048L64.9775 36.5293H56.6917L50.1644 13.3112H49.6876L49.4491 28.5415L49.2107 41H40.1798ZM97.3992 41H88.0404V2.90933H97.3992V41ZM119.272 41.8345C113.848 41.8345 109.804 40.4039 107.142 37.5426C104.499 34.6615 103.178 30.5583 103.178 25.2332V18.4675C103.178 13.2417 104.509 9.2081 107.171 6.3667C109.834 3.50543 113.848 2.07479 119.213 2.07479C120.643 2.07479 121.965 2.18408 123.177 2.40265C124.389 2.62122 125.492 2.91926 126.485 3.29679C127.479 3.65445 128.353 4.06178 129.108 4.51879L129.793 12.5065C128.621 11.8905 127.33 11.3541 125.919 10.897C124.528 10.4202 122.908 10.1817 121.061 10.1817C118.219 10.1817 116.113 10.9467 114.742 12.4767C113.391 13.9868 112.715 16.1129 112.715 18.855V24.8755C112.715 27.5977 113.401 29.7238 114.772 31.2538C116.163 32.7838 118.378 33.5488 121.418 33.5488C123.206 33.5488 124.806 33.3103 126.217 32.8335C127.628 32.3566 128.919 31.7803 130.091 31.1048L129.406 39.2713C128.651 39.7283 127.767 40.1555 126.753 40.5529C125.74 40.9305 124.607 41.2384 123.356 41.4769C122.124 41.7153 120.762 41.8345 119.272 41.8345ZM144.784 41H135.426V2.90933H144.784V41Z" fill="#111111"/>
<path d="M160.438 42.2363L167.328 18.1791H176.175L183.027 42.2363H177.079L171.977 22.0568H171.544L166.387 42.2363H160.438ZM166.292 36.5703V31.996H177.135V36.5703H166.292ZM188.493 42.7446C187.414 42.7446 186.617 42.4685 186.103 41.9163C185.601 41.3641 185.35 40.5924 185.35 39.6009V39.3939C185.35 38.415 185.601 37.6432 186.103 37.0785C186.617 36.5138 187.414 36.2314 188.493 36.2314C189.548 36.2314 190.332 36.5138 190.846 37.0785C191.361 37.6432 191.618 38.415 191.618 39.3939V39.6009C191.618 40.5924 191.361 41.3641 190.846 41.9163C190.332 42.4685 189.548 42.7446 188.493 42.7446ZM202.494 42.7446C201.377 42.7446 200.329 42.6693 199.35 42.5187C198.384 42.3806 197.499 42.1987 196.696 41.9728C195.905 41.7344 195.209 41.4896 194.607 41.2386L194.098 35.8173C195.09 36.2816 196.263 36.7146 197.618 37.1162C198.974 37.5052 200.411 37.6997 201.929 37.6997C203.397 37.6997 204.439 37.5177 205.054 37.1538C205.681 36.7773 205.995 36.1938 205.995 35.4032V35.2714C205.995 34.7443 205.851 34.3176 205.562 33.9913C205.286 33.6525 204.816 33.3451 204.15 33.069C203.498 32.7803 202.613 32.4729 201.496 32.1466C199.815 31.6446 198.409 31.0862 197.28 30.4712C196.163 29.8563 195.328 29.0908 194.776 28.1747C194.224 27.246 193.948 26.0727 193.948 24.6546V24.4099C193.948 22.2263 194.688 20.5572 196.169 19.4026C197.662 18.2481 199.852 17.6708 202.739 17.6708C204.47 17.6708 205.964 17.8214 207.219 18.1226C208.486 18.4238 209.559 18.7814 210.438 19.1956L210.946 24.2404C209.98 23.7761 208.882 23.3871 207.652 23.0733C206.434 22.7471 205.129 22.5839 203.736 22.5839C202.757 22.5839 201.986 22.6655 201.421 22.8286C200.869 22.9918 200.48 23.2302 200.254 23.5439C200.028 23.8451 199.915 24.2153 199.915 24.6546V24.7299C199.915 25.1816 200.04 25.577 200.291 25.9158C200.555 26.2546 201.019 26.5809 201.684 26.8946C202.362 27.2084 203.322 27.5472 204.565 27.9111C206.234 28.4006 207.614 28.9277 208.706 29.4924C209.81 30.0446 210.632 30.7661 211.172 31.6572C211.724 32.5356 212 33.709 212 35.1773V35.4785C212 37.9005 211.216 39.7202 209.647 40.9375C208.078 42.1422 205.694 42.7446 202.494 42.7446ZM217.686 42.7446C216.606 42.7446 215.809 42.4685 215.295 41.9163C214.793 41.3641 214.542 40.5924 214.542 39.6009V39.3939C214.542 38.415 214.793 37.6432 215.295 37.0785C215.809 36.5138 216.606 36.2314 217.686 36.2314C218.74 36.2314 219.524 36.5138 220.039 37.0785C220.553 37.6432 220.81 38.415 220.81 39.3939V39.6009C220.81 40.5924 220.553 41.3641 220.039 41.9163C219.524 42.4685 218.74 42.7446 217.686 42.7446ZM228.446 42.2363V37.3044H233.698C235.203 37.3044 236.333 36.8965 237.086 36.0808C237.839 35.2651 238.215 34.098 238.215 32.5795V27.7606C238.215 26.2421 237.839 25.0813 237.086 24.2781C236.333 23.4624 235.203 23.0545 233.698 23.0545H228.427V18.1791H233.905C237.331 18.1791 239.891 19.0073 241.585 20.6639C243.292 22.3078 244.145 24.6734 244.145 27.7606V32.5984C244.145 35.6981 243.298 38.0825 241.604 39.7515C239.91 41.4081 237.343 42.2363 233.905 42.2363H228.446ZM224.323 42.2363V18.1791H230.121V42.2363H224.323ZM249.304 42.7446C248.225 42.7446 247.428 42.4685 246.914 41.9163C246.412 41.3641 246.161 40.5924 246.161 39.6009V39.3939C246.161 38.415 246.412 37.6432 246.914 37.0785C247.428 36.5138 248.225 36.2314 249.304 36.2314C250.358 36.2314 251.143 36.5138 251.657 37.0785C252.172 37.6432 252.429 38.415 252.429 39.3939V39.6009C252.429 40.5924 252.172 41.3641 251.657 41.9163C251.143 42.4685 250.358 42.7446 249.304 42.7446Z" fill="#111111"/>
<path d="M20.4163 66.3158V62.6169H24.3553C25.4847 62.6169 26.3318 62.311 26.8965 61.6992C27.4613 61.0874 27.7436 60.2121 27.7436 59.0732V55.459C27.7436 54.3201 27.4613 53.4495 26.8965 52.8471C26.3318 52.2353 25.4847 51.9294 24.3553 51.9294H20.4022V48.2728H24.5106C27.0801 48.2728 29.0001 48.894 30.2708 50.1364C31.5508 51.3694 32.1908 53.1436 32.1908 55.459V59.0873C32.1908 61.4121 31.5555 63.2004 30.2849 64.4522C29.0143 65.6946 27.0895 66.3158 24.5106 66.3158H20.4163ZM17.3245 66.3158V48.2728H21.6728V66.3158H17.3245ZM34.8894 66.3158V48.2728H39.2095V66.3158H34.8894ZM36.1741 66.3158V62.631H47.5251V66.3158H36.1741ZM37.4165 58.932V55.3884H47.1863V58.932H37.4165ZM36.16 51.9153V48.2728H47.398V51.9153H36.16ZM54.7225 66.3158H50.3035V48.2728H54.7225V66.3158ZM52.8165 62.6027H62.2474V66.3158H52.8165V62.6027ZM68.7854 66.3158H64.3665V48.2728H68.7854V66.3158ZM66.8795 62.6027H76.3104V66.3158H66.8795V62.6027ZM81.1659 47.6658C81.1941 47.8634 81.2224 48.094 81.2506 48.3576C81.2788 48.6211 81.293 48.9082 81.293 49.2188C81.293 50.3576 81.1188 51.4212 80.7706 52.4095C80.4318 53.3977 79.8859 54.3248 79.1329 55.1907L76.1681 54.5131C76.5258 53.7789 76.7987 52.9977 76.9869 52.1694C77.1846 51.3412 77.2834 50.4329 77.2834 49.4447C77.2834 49.1341 77.274 48.8423 77.2552 48.5693C77.2364 48.2964 77.2128 47.9952 77.1846 47.6658H81.1659ZM91.2191 66.7535C88.6402 66.7535 86.7295 66.1323 85.4871 64.8899C84.2542 63.6381 83.6377 61.8074 83.6377 59.3979V48.2728H88.0708V59.4826C88.0708 60.6497 88.3202 61.5345 88.819 62.1368C89.3273 62.7298 90.1273 63.0263 91.2191 63.0263C92.3203 63.0263 93.1203 62.7298 93.6192 62.1368C94.118 61.5345 94.3674 60.6497 94.3674 59.4826V48.2728H98.8005V59.3979C98.8005 61.8074 98.184 63.6381 96.951 64.8899C95.7275 66.1323 93.8168 66.7535 91.2191 66.7535ZM108.008 48.2587L112.893 61.5015H113.09L112.893 53.8777V48.2587H117.1V66.3158H111.184L106.116 52.7765H105.932L106.13 60.5697V66.3158H101.923V48.2587H108.008ZM124.803 66.3158H120.37V48.2728H124.803V66.3158ZM131.719 66.3158L126.778 48.2728H131.352L134.896 63.0263H135.221L138.778 48.2728H143.339L138.411 66.3158H131.719ZM145.297 66.3158V48.2728H149.618V66.3158H145.297ZM146.582 66.3158V62.631H157.933V66.3158H146.582ZM147.825 58.932V55.3884H157.594V58.932H147.825ZM146.568 51.9153V48.2728H157.806V51.9153H146.568ZM170.848 66.3158L170.495 62.9133C170.439 62.311 170.321 61.8215 170.142 61.445C169.964 61.0592 169.691 60.7768 169.324 60.598C168.956 60.4097 168.467 60.3156 167.855 60.3156L163.775 60.3015V56.9273L168.025 56.9131C168.947 56.9131 169.611 56.7108 170.015 56.3061C170.42 55.9013 170.622 55.2943 170.622 54.4848V54.2025C170.622 53.4024 170.42 52.8048 170.015 52.4095C169.62 52.0047 168.952 51.8024 168.011 51.8024H163.747V48.2728H168.646C170.858 48.2728 172.472 48.7011 173.488 49.5576C174.514 50.4141 175.027 51.6471 175.027 53.2565V53.6236C175.027 54.8378 174.717 55.7837 174.095 56.4614C173.474 57.139 172.528 57.5249 171.258 57.619V58.2402L170.354 57.6332C171.446 57.7085 172.293 57.9343 172.895 58.3108C173.498 58.6873 173.94 59.2144 174.223 59.8921C174.514 60.5603 174.726 61.3933 174.858 62.391L175.38 66.3158H170.848ZM160.712 66.3158V48.2728H165.003V58.1414L165.032 59.7791V66.3158H160.712ZM183.495 66.697C182.658 66.697 181.872 66.6405 181.138 66.5276C180.413 66.424 179.749 66.2876 179.147 66.1181C178.554 65.9393 178.032 65.7558 177.58 65.5675L177.199 61.5015C177.942 61.8498 178.822 62.1745 179.839 62.4757C180.855 62.7674 181.933 62.9133 183.072 62.9133C184.173 62.9133 184.954 62.7769 185.415 62.5039C185.886 62.2215 186.121 61.7839 186.121 61.1909V61.0921C186.121 60.6968 186.013 60.3768 185.797 60.1321C185.589 59.8779 185.237 59.6473 184.738 59.4403C184.248 59.2238 183.585 58.9932 182.747 58.7485C181.486 58.372 180.432 57.9532 179.585 57.492C178.747 57.0308 178.121 56.4566 177.707 55.7696C177.293 55.0731 177.086 54.193 177.086 53.1295V52.9459C177.086 51.3082 177.641 50.0564 178.752 49.1905C179.872 48.3246 181.514 47.8917 183.679 47.8917C184.978 47.8917 186.098 48.0046 187.039 48.2305C187.99 48.4564 188.794 48.7246 189.453 49.0352L189.834 52.8189C189.11 52.4706 188.286 52.1789 187.364 51.9436C186.451 51.6988 185.472 51.5765 184.427 51.5765C183.693 51.5765 183.114 51.6377 182.691 51.76C182.276 51.8824 181.985 52.0612 181.815 52.2965C181.646 52.5224 181.561 52.8001 181.561 53.1295V53.186C181.561 53.5248 181.655 53.8213 181.843 54.0754C182.041 54.3295 182.389 54.5742 182.888 54.8095C183.396 55.0448 184.116 55.299 185.048 55.5719C186.3 55.939 187.335 56.3343 188.154 56.7578C188.983 57.172 189.599 57.7132 190.004 58.3814C190.418 59.0403 190.625 59.9203 190.625 61.0215V61.2474C190.625 63.0639 190.037 64.4287 188.86 65.3416C187.684 66.2452 185.895 66.697 183.495 66.697ZM197.572 66.3158H193.139V48.2728H197.572V66.3158ZM204.94 66.3158V49.1199H209.359V66.3158H204.94ZM199.956 51.9577V48.2728H214.329V51.9577H199.956ZM213.224 66.3158L218.391 48.2728H225.027L230.166 66.3158H225.704L221.878 51.1812H221.554L217.685 66.3158H213.224ZM217.615 62.0662V58.6355H225.747V62.0662H217.615Z" fill="#F27215"/>
</g>
<defs>
<clipPath id="clip0_61_2">
<rect width="256" height="70" fill="white"/>
</clipPath>
</defs>
</svg>
