<svg width="297" height="127" viewBox="0 0 297 127" fill="none" xmlns="http://www.w3.org/2000/svg">
<g clip-path="url(#clip0_121_11)">
<path d="M10.8625 67L24.5875 19.075H42.2125L55.8625 67H44.0125L33.85 26.8H32.9875L22.7125 67H10.8625ZM22.525 55.7125V46.6H44.125V55.7125H22.525ZM60.5535 67L62.0535 19.075H78.4035L86.316 47.65H86.8035L94.716 19.075H111.066L112.566 67H101.204L100.866 51.2875L100.529 32.1625H99.966L91.7535 61.375H81.3285L73.116 32.1625H72.516L72.216 51.325L71.916 67H60.5535ZM132.546 67H120.771V19.075H132.546V67ZM160.066 68.05C153.241 68.05 148.154 66.25 144.804 62.65C141.479 59.025 139.816 53.8625 139.816 47.1625V38.65C139.816 32.075 141.491 27 144.841 23.425C148.191 19.825 153.241 18.025 159.991 18.025C161.791 18.025 163.454 18.1625 164.979 18.4375C166.504 18.7125 167.891 19.0875 169.141 19.5625C170.391 20.0125 171.491 20.525 172.441 21.1L173.304 31.15C171.829 30.375 170.204 29.7 168.429 29.125C166.679 28.525 164.641 28.225 162.316 28.225C158.741 28.225 156.091 29.1875 154.366 31.1125C152.666 33.0125 151.816 35.6875 151.816 39.1375V46.7125C151.816 50.1375 152.679 52.8125 154.404 54.7375C156.154 56.6625 158.941 57.625 162.766 57.625C165.016 57.625 167.029 57.325 168.804 56.725C170.579 56.125 172.204 55.4 173.679 54.55L172.816 64.825C171.866 65.4 170.754 65.9375 169.479 66.4375C168.204 66.9125 166.779 67.3 165.204 67.6C163.654 67.9 161.941 68.05 160.066 68.05ZM192.165 67H180.39V19.075H192.165V67Z" fill="#111111"/>
<path d="M104.422 98.5507C101.177 98.5507 98.773 97.7691 97.2099 96.2059C95.6586 94.6309 94.8829 92.3276 94.8829 89.2961V75.2987H100.461V89.4026C100.461 90.8711 100.774 91.9842 101.402 92.7421C102.041 93.4882 103.048 93.8612 104.422 93.8612C105.807 93.8612 106.814 93.4882 107.441 92.7421C108.069 91.9842 108.383 90.8711 108.383 89.4026V75.2987H113.961V89.2961C113.961 92.3276 113.185 94.6309 111.634 96.2059C110.094 97.7691 107.69 98.5507 104.422 98.5507ZM125.545 75.2809L131.691 91.9428H131.94L131.691 82.3507V75.2809H136.984V98H129.542L123.165 80.9651H122.934L123.182 90.7704V98H117.889V75.2809H125.545ZM146.677 98H141.099V75.2987H146.677V98ZM155.378 98L149.161 75.2987H154.917L159.375 93.8612H159.784L164.26 75.2987H169.997L163.798 98H155.378ZM172.462 98V75.2987H177.898V98H172.462ZM174.079 98V93.3638H188.36V98H174.079ZM175.642 88.7099V84.2513H187.934V88.7099H175.642ZM174.061 79.8816V75.2987H188.2V79.8816H174.061ZM204.61 98L204.166 93.7191C204.095 92.9612 203.947 92.3454 203.722 91.8717C203.497 91.3862 203.153 91.0309 202.691 90.8059C202.23 90.5691 201.614 90.4507 200.844 90.4507L195.71 90.4329V86.1875L201.057 86.1697C202.218 86.1697 203.053 85.9151 203.562 85.4059C204.071 84.8967 204.326 84.1329 204.326 83.1145V82.7592C204.326 81.7526 204.071 81.0007 203.562 80.5033C203.064 79.9941 202.224 79.7395 201.039 79.7395H195.675V75.2987H201.839C204.622 75.2987 206.653 75.8375 207.932 76.9151C209.222 77.9928 209.868 79.5441 209.868 81.5691V82.0309C209.868 83.5586 209.477 84.7487 208.695 85.6013C207.914 86.4539 206.724 86.9395 205.125 87.0579V87.8395L203.988 87.0757C205.362 87.1704 206.428 87.4546 207.185 87.9283C207.943 88.402 208.5 89.0651 208.855 89.9178C209.222 90.7586 209.489 91.8066 209.655 93.0618L210.312 98H204.61ZM191.856 98V75.2987H197.256V87.7151L197.291 89.7757V98H191.856ZM220.522 98.4796C219.468 98.4796 218.479 98.4086 217.556 98.2664C216.644 98.1362 215.809 97.9645 215.051 97.7513C214.305 97.5263 213.648 97.2954 213.079 97.0586L212.6 91.9428C213.535 92.3809 214.642 92.7895 215.921 93.1684C217.2 93.5355 218.556 93.7191 219.989 93.7191C221.375 93.7191 222.358 93.5474 222.938 93.2039C223.53 92.8487 223.826 92.298 223.826 91.552V91.4276C223.826 90.9303 223.69 90.5276 223.417 90.2197C223.157 89.9 222.713 89.6099 222.085 89.3493C221.469 89.077 220.634 88.7868 219.581 88.4789C217.994 88.0053 216.667 87.4783 215.602 86.898C214.548 86.3178 213.76 85.5954 213.239 84.7309C212.718 83.8546 212.458 82.7474 212.458 81.4092V81.1783C212.458 79.1178 213.156 77.5428 214.554 76.4533C215.963 75.3638 218.029 74.8191 220.753 74.8191C222.387 74.8191 223.796 74.9612 224.981 75.2454C226.177 75.5296 227.189 75.8671 228.018 76.2579L228.498 81.0184C227.586 80.5803 226.55 80.2132 225.389 79.9171C224.24 79.6092 223.009 79.4553 221.694 79.4553C220.771 79.4553 220.042 79.5322 219.509 79.6862C218.988 79.8401 218.621 80.0651 218.408 80.3612C218.195 80.6454 218.088 80.9947 218.088 81.4092V81.4803C218.088 81.9066 218.207 82.2796 218.444 82.5993C218.692 82.9191 219.131 83.227 219.758 83.523C220.398 83.8191 221.304 84.1388 222.476 84.4822C224.051 84.9441 225.354 85.4414 226.384 85.9743C227.426 86.4954 228.202 87.1763 228.711 88.0171C229.232 88.8461 229.492 89.9533 229.492 91.3388V91.623C229.492 93.9086 228.752 95.6257 227.272 96.7743C225.792 97.9112 223.542 98.4796 220.522 98.4796ZM238.233 98H232.656V75.2987H238.233V98ZM247.503 98V76.3645H253.063V98H247.503ZM241.233 79.9349V75.2987H259.316V79.9349H241.233ZM257.926 98L264.427 75.2987H272.776L279.242 98H273.629L268.815 78.9579H268.406L263.539 98H257.926ZM263.45 92.6533V88.3368H273.682V92.6533H263.45ZM269.845 68.6375H275.671V68.6908L270.715 73.4868H265.919V73.4336L269.845 68.6375Z" fill="#111111"/>
<path d="M14.9507 98V93.3461H19.9066C21.3276 93.3461 22.3934 92.9612 23.1039 92.1914C23.8145 91.4217 24.1697 90.3204 24.1697 88.8875V84.3401C24.1697 82.9072 23.8145 81.8118 23.1039 81.0539C22.3934 80.2842 21.3276 79.8993 19.9066 79.8993H14.9329V75.2987H20.102C23.3349 75.2987 25.7507 76.0803 27.3493 77.6434C28.9599 79.1947 29.7651 81.427 29.7651 84.3401V88.9053C29.7651 91.8303 28.9658 94.0803 27.3671 95.6553C25.7684 97.2184 23.3467 98 20.102 98H14.9507ZM11.0605 98V75.2987H16.5316V98H11.0605ZM33.1604 98V75.2987H38.5959V98H33.1604ZM34.7768 98V93.3638H49.0584V98H34.7768ZM36.34 88.7099V84.2513H48.6321V88.7099H36.34ZM34.7591 79.8816V75.2987H48.8985V79.8816H34.7591ZM58.114 98H52.5541V75.2987H58.114V98ZM55.716 93.3283H67.5818V98H55.716V93.3283ZM75.8078 98H70.2479V75.2987H75.8078V98ZM73.4098 93.3283H85.2756V98H73.4098V93.3283ZM91.3847 74.5349C91.4202 74.7836 91.4557 75.0737 91.4913 75.4053C91.5268 75.7368 91.5446 76.098 91.5446 76.4888C91.5446 77.9217 91.3255 79.2599 90.8873 80.5033C90.461 81.7467 89.7742 82.9132 88.8268 84.0026L85.0965 83.15C85.5465 82.2263 85.8899 81.2434 86.1268 80.2013C86.3755 79.1592 86.4998 78.0164 86.4998 76.773C86.4998 76.3822 86.488 76.0151 86.4643 75.6717C86.4406 75.3283 86.411 74.9493 86.3755 74.5349H91.3847Z" fill="#F27215"/>
</g>
<defs>
<clipPath id="clip0_121_11">
<rect width="297" height="127" fill="white"/>
</clipPath>
</defs>
</svg>
