<svg width="230" height="94" viewBox="0 0 230 94" fill="none" xmlns="http://www.w3.org/2000/svg">
<g clip-path="url(#clip0_50_9)">
<path d="M0.8625 53L14.5875 5.075H32.2125L45.8625 53H34.0125L23.85 12.8H22.9875L12.7125 53H0.8625ZM12.525 41.7125V32.6H34.125V41.7125H12.525ZM50.5535 53L52.0535 5.075H68.4035L76.316 33.65H76.8035L84.716 5.075H101.066L102.566 53H91.2035L90.866 37.2875L90.5285 18.1625H89.966L81.7535 47.375H71.3285L63.116 18.1625H62.516L62.216 37.325L61.916 53H50.5535ZM122.546 53H110.771V5.075H122.546V53ZM150.066 54.05C143.241 54.05 138.154 52.25 134.804 48.65C131.479 45.025 129.816 39.8625 129.816 33.1625V24.65C129.816 18.075 131.491 13 134.841 9.425C138.191 5.825 143.241 4.025 149.991 4.025C151.791 4.025 153.454 4.1625 154.979 4.4375C156.504 4.7125 157.891 5.0875 159.141 5.5625C160.391 6.0125 161.491 6.525 162.441 7.1L163.304 17.15C161.829 16.375 160.204 15.7 158.429 15.125C156.679 14.525 154.641 14.225 152.316 14.225C148.741 14.225 146.091 15.1875 144.366 17.1125C142.666 19.0125 141.816 21.6875 141.816 25.1375V32.7125C141.816 36.1375 142.679 38.8125 144.404 40.7375C146.154 42.6625 148.941 43.625 152.766 43.625C155.016 43.625 157.029 43.325 158.804 42.725C160.579 42.125 162.204 41.4 163.679 40.55L162.816 50.825C161.866 51.4 160.754 51.9375 159.479 52.4375C158.204 52.9125 156.779 53.3 155.204 53.6C153.654 53.9 151.941 54.05 150.066 54.05ZM182.165 53H170.39V5.075H182.165V53Z" fill="#111111"/>
<path d="M23.1014 83.5352C19.9477 83.5352 17.6111 82.7756 16.0918 81.2562C14.584 79.7254 13.8301 77.4867 13.8301 74.5402V60.9353H19.2513V74.6437C19.2513 76.071 19.5563 77.1529 20.1663 77.8896C20.7879 78.6147 21.7662 78.9773 23.1014 78.9773C24.4481 78.9773 25.4264 78.6147 26.0364 77.8896C26.6465 77.1529 26.9515 76.071 26.9515 74.6437V60.9353H32.3727V74.5402C32.3727 77.4867 31.6188 79.7254 30.111 81.2562C28.6147 82.7756 26.2782 83.5352 23.1014 83.5352ZM43.6322 60.9181L49.6059 77.1126H49.8476L49.6059 67.7895V60.9181H54.7508V83H47.5168L41.3187 66.4429H41.0942L41.3359 75.9731V83H36.191V60.9181H43.6322ZM64.1713 83H58.7501V60.9353H64.1713V83ZM72.629 83L66.5863 60.9353H72.1801L76.5136 78.9773H76.9107L81.2615 60.9353H86.8381L80.8126 83H72.629ZM89.2336 83V60.9353H94.5167V83H89.2336ZM90.8047 83V78.4938H104.686V83H90.8047ZM92.3241 73.9704V69.6369H104.271V73.9704H92.3241ZM90.7875 65.3897V60.9353H104.53V65.3897H90.7875ZM120.48 83L120.048 78.8391C119.979 78.1025 119.835 77.504 119.617 77.0436C119.398 76.5717 119.064 76.2264 118.615 76.0077C118.166 75.7775 117.568 75.6624 116.82 75.6624L111.83 75.6451V71.5188L117.027 71.5015C118.155 71.5015 118.966 71.254 119.461 70.7591C119.956 70.2642 120.204 69.5218 120.204 68.5319V68.1866C120.204 67.2083 119.956 66.4774 119.461 65.994C118.978 65.499 118.161 65.2516 117.01 65.2516H111.795V60.9353H117.786C120.491 60.9353 122.465 61.459 123.708 62.5064C124.963 63.5539 125.59 65.0617 125.59 67.0299V67.4788C125.59 68.9636 125.21 70.1203 124.451 70.949C123.691 71.7777 122.534 72.2497 120.98 72.3648V73.1244L119.875 72.382C121.211 72.4741 122.247 72.7503 122.983 73.2107C123.72 73.6711 124.261 74.3157 124.606 75.1444C124.963 75.9616 125.222 76.9803 125.383 78.2003L126.022 83H120.48ZM108.083 83V60.9353H113.332V73.0036L113.367 75.0063V83H108.083ZM135.946 83.4662C134.921 83.4662 133.96 83.3971 133.062 83.259C132.176 83.1324 131.365 82.9655 130.628 82.7583C129.903 82.5396 129.264 82.3152 128.712 82.085L128.246 77.1126C129.155 77.5385 130.231 77.9356 131.474 78.3039C132.717 78.6607 134.035 78.8391 135.428 78.8391C136.774 78.8391 137.73 78.6722 138.294 78.3384C138.869 77.9931 139.157 77.4579 139.157 76.7328V76.612C139.157 76.1285 139.025 75.7372 138.76 75.4379C138.507 75.1272 138.075 74.8452 137.465 74.5919C136.866 74.3272 136.055 74.0452 135.031 73.746C133.488 73.2856 132.199 72.7734 131.163 72.2094C130.139 71.6454 129.373 70.9433 128.867 70.103C128.361 69.2513 128.107 68.1751 128.107 66.8745V66.65C128.107 64.6473 128.786 63.1165 130.145 62.0576C131.514 60.9986 133.523 60.4692 136.17 60.4692C137.759 60.4692 139.128 60.6073 140.279 60.8835C141.442 61.1598 142.426 61.4878 143.232 61.8676L143.698 66.4947C142.811 66.0688 141.804 65.712 140.676 65.4242C139.56 65.125 138.363 64.9753 137.085 64.9753C136.187 64.9753 135.48 65.0502 134.962 65.1998C134.455 65.3494 134.098 65.5681 133.891 65.8559C133.684 66.1321 133.58 66.4716 133.58 66.8745V66.9435C133.58 67.3579 133.695 67.7205 133.926 68.0312C134.167 68.342 134.593 68.6413 135.203 68.929C135.825 69.2168 136.705 69.5275 137.845 69.8613C139.376 70.3102 140.642 70.7936 141.643 71.3116C142.656 71.818 143.41 72.4799 143.905 73.2971C144.411 74.1028 144.665 75.179 144.665 76.5256V76.8019C144.665 79.0233 143.945 80.6922 142.506 81.8087C141.068 82.9137 138.881 83.4662 135.946 83.4662ZM153.16 83H147.739V60.9353H153.16V83ZM162.17 83V61.9712H167.574V83H162.17ZM156.076 65.4415V60.9353H173.652V65.4415H156.076ZM172.301 83L178.62 60.9353H186.734L193.019 83H187.563L182.884 64.4919H182.487L177.756 83H172.301ZM177.67 77.8032V73.6078H187.615V77.8032H177.67Z" fill="#111111"/>
<path d="M200 8.28627H204.916V13.5217C204.916 15.0229 205.323 16.1488 206.136 16.8994C206.949 17.65 208.113 18.0253 209.626 18.0253H214.43C215.944 18.0253 217.101 17.65 217.902 16.8994C218.715 16.1488 219.122 15.0229 219.122 13.5217V8.26751H223.982V13.7281C223.982 17.1434 223.156 19.6954 221.505 21.3842C219.866 23.0856 217.508 23.9363 214.43 23.9363H209.608C206.518 23.9363 204.141 23.0919 202.477 21.403C200.826 19.7142 200 17.1559 200 13.7281V8.28627ZM200 4.17674L223.982 4.17674V9.95636L200 9.95636V4.17674ZM200 27.523L223.982 27.523V33.2651H200V27.523ZM200 29.2307H204.898V44.3177H200V29.2307ZM209.814 30.882H214.524V43.8674H209.814V30.882ZM219.14 29.2119H223.982V44.1488H219.14V29.2119ZM200 53.8841V48.0106H223.982V53.8841H200ZM204.935 51.3508V63.8858H200V51.3508H204.935ZM200 72.5758V66.7023H223.982V72.5758H200ZM204.935 70.0425V82.5775H200V70.0425H204.935Z" fill="#F27215"/>
</g>
<defs>
<clipPath id="clip0_50_9">
<rect width="230" height="94" fill="white"/>
</clipPath>
</defs>
</svg>
